<svg width="127" height="62" viewBox="0 0 127 62" fill="none" xmlns="http://www.w3.org/2000/svg">
<path d="M23.8976 31.8456C23.8976 28.7051 24.5179 25.8498 25.7968 23.3166C27.0702 20.7942 28.8475 18.8047 31.1315 17.3993C33.4121 15.9958 35.9731 15.3043 38.7714 15.3043V16.8314C36.2357 16.8314 33.9549 17.4537 31.9308 18.6992C29.9065 19.9448 28.3163 21.7143 27.1595 24.0053C26.003 26.2963 25.4249 28.9097 25.4249 31.8456C25.4249 34.7817 26.003 37.3952 27.1595 39.6861C28.3163 41.9771 29.9065 43.7464 31.9308 44.9922C33.9549 46.2377 36.2357 46.86 38.7714 46.86C41.3069 46.8599 43.5868 46.2376 45.6106 44.9922C47.6348 43.7464 49.2252 41.9771 50.3818 39.6861C51.5384 37.3952 52.1166 34.7817 52.1166 31.8456C52.1166 28.9097 51.5384 26.2963 50.3818 24.0053C49.2252 21.7143 47.6348 19.9448 45.6106 18.6992C43.7133 17.5316 41.5907 16.9119 39.2436 16.8389L38.7714 16.8314V15.3043C41.5694 15.3043 44.1295 15.9959 46.4101 17.3993C48.694 18.8047 50.4712 20.7942 51.7446 23.3166C53.0237 25.8498 53.6438 28.7051 53.6438 31.8456C53.6438 34.9863 53.0237 37.8416 51.7446 40.3749C50.4712 42.8971 48.694 44.8867 46.4101 46.2921C44.1295 47.6955 41.5694 48.387 38.7714 48.387C35.9731 48.387 33.4121 47.6956 31.1315 46.2921C28.8475 44.8867 27.0702 42.8971 25.7968 40.3749C24.5179 37.8416 23.8976 34.9863 23.8976 31.8456ZM26.6261 31.8456C26.6261 29.8105 26.932 27.9303 27.5436 26.2064C28.1554 24.4716 28.9954 23.009 30.063 21.8192C31.1417 20.6293 32.4265 19.7011 33.9166 19.0339C35.4181 18.3667 37.0366 18.0328 38.7714 18.0328V19.2341C36.6696 19.2341 34.7893 19.7508 33.1322 20.7852C31.4751 21.8195 30.173 23.2991 29.2276 25.2231C28.2937 27.136 27.8275 29.3436 27.8275 31.8456L27.8484 32.7707C27.9506 34.8966 28.4104 36.8012 29.2276 38.4848C30.173 40.3977 31.4751 41.8718 33.1322 42.9062C34.7893 43.9406 36.6696 44.4573 38.7714 44.4573C40.8733 44.4571 42.7523 43.9403 44.4093 42.9062C46.0664 41.8718 47.3617 40.3977 48.2959 38.4848C49.2411 36.5607 49.714 34.3479 49.714 31.8456C49.714 29.3433 49.2411 27.1361 48.2959 25.2231C47.3617 23.2991 46.0664 21.8195 44.4093 20.7852C42.8559 19.8158 41.1072 19.3009 39.163 19.2401L38.7714 19.2341V18.0328L39.4155 18.0476C40.9068 18.1207 42.3043 18.4501 43.6083 19.0339C45.1096 19.7011 46.3945 20.6293 47.4621 21.8192C48.5408 23.009 49.3861 24.4717 49.9978 26.2064C50.6095 27.9303 50.9152 29.8105 50.9152 31.8456C50.9152 33.8809 50.6095 35.7664 49.9978 37.5014C49.3861 39.2251 48.5408 40.6822 47.4621 41.8722C46.3945 43.0621 45.1096 43.9902 43.6083 44.6573C42.1182 45.3246 40.5061 45.6586 38.7714 45.6586C37.0366 45.6586 35.4181 45.3246 33.9166 44.6573C32.4265 43.9902 31.1417 43.0621 30.063 41.8722C28.9954 40.6822 28.1554 39.2251 27.5436 37.5014C27.0084 35.9832 26.7064 34.3499 26.6395 32.6017L26.6261 31.8456ZM29.0288 31.8456C29.0288 28.398 29.9288 25.6339 31.7306 23.5541C33.5433 21.4744 35.891 20.4356 38.7714 20.4356V21.6354C36.2245 21.6354 34.1614 22.5595 32.5822 24.4058C31.014 26.2521 30.2288 28.7315 30.2288 31.8456C30.2288 34.9597 31.014 37.4393 32.5822 39.2856C34.1614 41.1318 36.2245 42.0561 38.7714 42.0561C41.318 42.0557 43.3746 41.1317 44.9427 39.2856C46.4233 37.5549 47.2111 35.2675 47.3037 32.4226L47.3125 31.8456C47.3125 28.7315 46.5219 26.2521 44.9427 24.4058C43.4726 22.6749 41.5727 21.7555 39.2421 21.6474L38.7714 21.6354V20.4356L39.3048 20.4475C41.942 20.5695 44.1054 21.6044 45.7945 23.5541C47.6072 25.6339 48.514 28.398 48.514 31.8456L48.5021 32.4837C48.3959 35.6359 47.4941 38.1875 45.7945 40.1373C43.9929 42.2169 41.6516 43.2572 38.7714 43.2574C35.891 43.2574 33.5433 42.217 31.7306 40.1373C30.0413 38.1875 29.1448 35.6359 29.0395 32.4837L29.0288 31.8456ZM31.4303 31.8456C31.4303 29.0541 32.0978 26.8575 33.4325 25.256C34.7782 23.6435 36.5582 22.8368 38.7714 22.8368V24.0382C36.8919 24.0382 35.3949 24.7273 34.2827 26.1061C33.1816 27.4742 32.6315 29.3878 32.6315 31.8456C32.6315 34.3035 33.1816 36.2225 34.2827 37.6016C35.3949 38.9694 36.8918 39.6532 38.7714 39.6532C40.6508 39.653 42.1414 38.9693 43.2423 37.6016C44.3544 36.2225 44.9098 34.3035 44.9098 31.8456C44.9098 29.3878 44.3544 27.4742 43.2423 26.1061C42.2099 24.8132 40.8348 24.1264 39.1182 24.0456L38.7714 24.0382V22.8368L39.1809 22.8472C41.2042 22.9418 42.8414 23.7443 44.0926 25.256C45.4381 26.8575 46.1112 29.0541 46.1112 31.8456L46.1038 32.3627C46.0248 34.9104 45.354 36.94 44.0926 38.4518C42.758 40.0531 40.9844 40.8545 38.7714 40.8546C36.5582 40.8546 34.7782 40.0535 33.4325 38.4518C32.0979 36.8392 31.4303 34.6372 31.4303 31.8456ZM42.1828 31.8456C42.1828 29.8906 41.7766 28.6397 41.1848 27.8755L41.1788 27.8679C40.6265 27.1459 39.8869 26.7654 38.7714 26.7652C37.6594 26.7652 36.9102 27.1438 36.3464 27.8679C35.7613 28.6331 35.3585 29.8871 35.3585 31.8456C35.3585 33.7992 35.7593 35.0517 36.3418 35.8174C36.9062 36.5454 37.6563 36.9262 38.7714 36.9262C39.8869 36.926 40.6265 36.5454 41.1788 35.8233L41.1848 35.8159C41.7764 35.0517 42.1828 33.8007 42.1828 31.8456ZM43.7085 31.8456C43.7085 33.9809 43.269 35.6155 42.3905 36.7499C41.5232 37.8841 40.3171 38.4517 38.7714 38.4518C37.2255 38.4518 36.013 37.8844 35.1345 36.7499C34.3754 35.7571 33.9472 34.3818 33.8524 32.6227L33.8329 31.8456C33.8329 29.7104 34.2671 28.0759 35.1345 26.9415C36.013 25.807 37.2255 25.2396 38.7714 25.2396L39.0568 25.2455C40.4663 25.3121 41.5773 25.8781 42.3905 26.9415C43.269 28.0759 43.7085 29.7104 43.7085 31.8456Z" fill="white"/>
<path d="M24.3489 16.5049V47.1852H12.8879V25.5647H9.18359V16.5049H24.3489ZM10.7107 20.4349V21.6363H22.8216V20.4349H10.7107ZM10.7107 18.0322V19.2335H22.8216V18.0322H10.7107ZM15.6149 45.6581V24.0376H16.8162V45.6581H18.0177V24.0376H19.219V45.6581H20.4204V24.0376H21.6219V45.6581H22.8216V22.8362H10.7107V24.0376H14.415V45.6581H15.6149Z" fill="white"/>
<path d="M59.5311 30.5291C59.5311 14.5117 46.5465 1.52733 30.5291 1.52714C14.5116 1.52714 1.52714 14.5116 1.52714 30.5291C1.52733 46.5465 14.5117 59.5311 30.5291 59.5311V61.0583L29.7402 61.048C13.5059 60.6363 0.4217 47.5511 0.0104598 31.3166L0 30.5291C0 13.6686 13.6686 0 30.5291 0L31.3166 0.0104598C47.8132 0.428337 61.0583 13.932 61.0583 30.5291L61.048 31.3166C60.6301 47.813 47.1262 61.0582 30.5291 61.0583V59.5311C46.5464 59.531 59.531 46.5464 59.5311 30.5291Z" fill="white"/>
<path d="M89.6927 31.8456C89.6927 28.7051 90.3129 25.8498 91.5919 23.3166C92.8652 20.7942 94.6426 18.8047 96.9265 17.3993C99.2072 15.9958 101.768 15.3043 104.566 15.3043V16.8314C102.031 16.8314 99.7499 17.4537 97.7258 18.6992C95.7016 19.9448 94.1114 21.7143 92.9545 24.0053C91.798 26.2963 91.2198 28.9097 91.2198 31.8456C91.2198 34.7817 91.798 37.3952 92.9545 39.6861C94.1114 41.9771 95.7016 43.7464 97.7258 44.9922C99.7499 46.2377 102.031 46.86 104.566 46.86C107.102 46.8599 109.382 46.2376 111.406 44.9922C113.43 43.7464 115.02 41.9771 116.177 39.6861C117.333 37.3952 117.912 34.7817 117.912 31.8456C117.912 28.9097 117.333 26.2963 116.177 24.0053C115.02 21.7143 113.43 19.9448 111.406 18.6992C109.508 17.5316 107.386 16.9119 105.039 16.8389L104.566 16.8314V15.3043C107.364 15.3043 109.925 15.9959 112.205 17.3993C114.489 18.8047 116.266 20.7942 117.54 23.3166C118.819 25.8498 119.439 28.7051 119.439 31.8456C119.439 34.9863 118.819 37.8416 117.54 40.3749C116.266 42.8971 114.489 44.8867 112.205 46.2921C109.925 47.6955 107.364 48.387 104.566 48.387C101.768 48.387 99.2072 47.6956 96.9265 46.2921C94.6426 44.8867 92.8652 42.8971 91.5919 40.3749C90.3129 37.8416 89.6927 34.9863 89.6927 31.8456ZM92.4211 31.8456C92.4211 29.8105 92.7271 27.9303 93.3386 26.2064C93.9504 24.4716 94.7905 23.009 95.858 21.8192C96.9368 20.6293 98.2215 19.7011 99.7117 19.0339C101.213 18.3667 102.832 18.0328 104.566 18.0328V19.2341C102.465 19.2341 100.584 19.7508 98.9273 20.7852C97.2701 21.8195 95.9679 23.2991 95.0227 25.2231C94.0887 27.136 93.6226 29.3436 93.6226 31.8456L93.6434 32.7707C93.7457 34.8966 94.2055 36.8012 95.0227 38.4848C95.9679 40.3977 97.2701 41.8718 98.9273 42.9062C100.584 43.9406 102.465 44.4573 104.566 44.4573C106.668 44.4571 108.547 43.9403 110.204 42.9062C111.861 41.8718 113.157 40.3977 114.091 38.4848C115.036 36.5607 115.509 34.3479 115.509 31.8456C115.509 29.3433 115.036 27.1361 114.091 25.2231C113.157 23.2991 111.861 21.8195 110.204 20.7852C108.651 19.8158 106.902 19.3009 104.958 19.2401L104.566 19.2341V18.0328L105.211 18.0476C106.702 18.1207 108.099 18.4501 109.403 19.0339C110.905 19.7011 112.19 20.6293 113.257 21.8192C114.336 23.009 115.181 24.4717 115.793 26.2064C116.405 27.9303 116.71 29.8105 116.71 31.8456C116.71 33.8809 116.405 35.7664 115.793 37.5014C115.181 39.2251 114.336 40.6822 113.257 41.8722C112.19 43.0621 110.905 43.9902 109.403 44.6573C107.913 45.3246 106.301 45.6586 104.566 45.6586C102.832 45.6586 101.213 45.3246 99.7117 44.6573C98.2215 43.9902 96.9368 43.0621 95.858 41.8722C94.7905 40.6822 93.9504 39.2251 93.3386 37.5014C92.8034 35.9832 92.5015 34.3499 92.4346 32.6017L92.4211 31.8456ZM94.8239 31.8456C94.8239 28.398 95.7239 25.6339 97.5256 23.5541C99.3383 21.4744 101.686 20.4356 104.566 20.4356V21.6354C102.02 21.6354 99.9565 22.5595 98.3773 24.4058C96.8091 26.2521 96.0238 28.7315 96.0238 31.8456C96.0238 34.9597 96.8091 37.4393 98.3773 39.2856C99.9565 41.1318 102.02 42.0561 104.566 42.0561C107.113 42.0557 109.17 41.1317 110.738 39.2856C112.218 37.5549 113.006 35.2675 113.099 32.4226L113.108 31.8456C113.108 28.7315 112.317 26.2521 110.738 24.4058C109.268 22.6749 107.368 21.7555 105.037 21.6474L104.566 21.6354V20.4356L105.1 20.4475C107.737 20.5695 109.9 21.6044 111.59 23.5541C113.402 25.6339 114.309 28.398 114.309 31.8456L114.297 32.4837C114.191 35.6359 113.289 38.1875 111.59 40.1373C109.788 42.2169 107.447 43.2572 104.566 43.2574C101.686 43.2574 99.3383 42.217 97.5256 40.1373C95.8364 38.1875 94.9399 35.6359 94.8345 32.4837L94.8239 31.8456ZM97.2254 31.8456C97.2254 29.0541 97.8929 26.8575 99.2275 25.256C100.573 23.6435 102.353 22.8368 104.566 22.8368V24.0382C102.687 24.0382 101.19 24.7273 100.078 26.1061C98.9767 27.4742 98.4265 29.3878 98.4265 31.8456C98.4265 34.3035 98.9767 36.2225 100.078 37.6016C101.19 38.9694 102.687 39.6532 104.566 39.6532C106.446 39.653 107.936 38.9693 109.037 37.6016C110.149 36.2225 110.705 34.3035 110.705 31.8456C110.705 29.3878 110.149 27.4742 109.037 26.1061C108.005 24.8132 106.63 24.1264 104.913 24.0456L104.566 24.0382V22.8368L104.976 22.8472C106.999 22.9418 108.636 23.7443 109.888 25.256C111.233 26.8575 111.906 29.0541 111.906 31.8456L111.899 32.3627C111.82 34.9104 111.149 36.94 109.888 38.4518C108.553 40.0531 106.78 40.8545 104.566 40.8546C102.353 40.8546 100.573 40.0535 99.2275 38.4518C97.893 36.8392 97.2254 34.6372 97.2254 31.8456ZM107.978 31.8456C107.978 29.8906 107.572 28.6397 106.98 27.8755L106.974 27.8679C106.422 27.1459 105.682 26.7654 104.566 26.7652C103.454 26.7652 102.705 27.1438 102.141 27.8679C101.556 28.6331 101.154 29.8871 101.154 31.8456C101.154 33.7992 101.554 35.0517 102.137 35.8174C102.701 36.5454 103.451 36.9262 104.566 36.9262C105.682 36.926 106.422 36.5454 106.974 35.8233L106.98 35.8159C107.571 35.0517 107.978 33.8007 107.978 31.8456ZM109.504 31.8456C109.504 33.9809 109.064 35.6155 108.186 36.7499C107.318 37.8841 106.112 38.4517 104.566 38.4518C103.021 38.4518 101.808 37.8844 100.93 36.7499C100.17 35.7571 99.7423 34.3818 99.6474 32.6227L99.628 31.8456C99.628 29.7104 100.062 28.0759 100.93 26.9415C101.808 25.807 103.021 25.2396 104.566 25.2396L104.852 25.2455C106.261 25.3121 107.372 25.8781 108.186 26.9415C109.064 28.0759 109.504 29.7104 109.504 31.8456Z" fill="white"/>
<path d="M90.1442 16.5049V47.1852H78.6832V25.5647H74.979V16.5049H90.1442ZM76.5061 20.4349V21.6363H88.617V20.4349H76.5061ZM76.5061 18.0322V19.2335H88.617V18.0322H76.5061ZM81.4102 45.6581V24.0376H82.6115V45.6581H83.813V24.0376H85.0143V45.6581H86.2158V24.0376H87.4172V45.6581H88.617V22.8362H76.5061V24.0376H80.2103V45.6581H81.4102Z" fill="white"/>
<path d="M125.326 30.5291C125.326 14.5117 112.342 1.52733 96.3243 1.52714C80.3069 1.52714 67.3223 14.5116 67.3223 30.5291C67.3226 46.5465 80.3069 59.5311 96.3243 59.5311V61.0584L95.5354 61.048C79.3011 60.6363 66.2169 47.5511 65.8056 31.3166L65.7952 30.5291C65.7952 13.6686 79.4638 0 96.3243 0L97.1118 0.0104598C113.608 0.428337 126.854 13.932 126.854 30.5291L126.843 31.3166C126.425 47.813 112.921 61.0582 96.3243 61.0584V59.5311C112.342 59.531 125.326 46.5464 125.326 30.5291Z" fill="white"/>
</svg>
