<svg width="78" height="87" viewBox="0 0 78 87" fill="none" xmlns="http://www.w3.org/2000/svg">
<g filter="url(#filter0_d_663_77)">
<mask id="path-1-outside-1_663_77" maskUnits="userSpaceOnUse" x="-0.585938" y="-0.0859375" width="74" height="82" fill="black">
<rect fill="white" x="-0.585938" y="-0.0859375" width="74" height="82"/>
<path d="M2.14844 21.4609H8.875V29.1719C8.875 29.9375 9.33594 30.3203 10.2578 30.3203C11.1484 30.3203 11.5938 29.9375 11.5938 29.1719V25.1875C11.5938 23.9688 10.7812 22.5391 9.15625 20.8984C6.01562 17.8516 4.0625 15.8047 3.29688 14.7578C2.53125 13.7109 2.14844 12.5625 2.14844 11.3125V7.53906C2.14844 3.17969 4.99219 1 10.6797 1C15.7734 1 18.3203 2.98438 18.3203 6.95312V12.7656H11.5938V6.57812C11.5938 5.90625 11.2266 5.57031 10.4922 5.57031C9.63281 5.57031 9.20312 6.21875 9.20312 7.51562L9.34375 9.69531C9.34375 10.9453 10.1719 12.3984 11.8281 14.0547C14.9062 17.0078 16.8594 19.0703 17.6875 20.2422C18.5312 21.4141 18.9531 22.7422 18.9531 24.2266V28.5156C18.9531 32.9844 16.1016 35.2188 10.3984 35.2188C4.89844 35.2188 2.14844 33.1875 2.14844 29.125V21.4609ZM20.4766 29.1719V7.53906C20.4766 3.17969 23.3047 1 28.9609 1C34.5391 1 37.3281 3.16406 37.3281 7.49219V29.125C37.3281 31.0781 36.5469 32.5859 34.9844 33.6484C33.4375 34.6953 31.4141 35.2188 28.9141 35.2188C23.2891 35.2188 20.4766 33.2031 20.4766 29.1719ZM30.1094 29.5234V6.625C30.1094 5.95312 29.7109 5.61719 28.9141 5.61719C28.0859 5.61719 27.6719 5.95312 27.6719 6.625V29.5234C27.6719 30.1953 28.0859 30.5312 28.9141 30.5312C29.7109 30.5312 30.1094 30.1953 30.1094 29.5234ZM52.7969 34.9141H38.9453V1.30469H46.3281V30.6016H52.7969V34.9141ZM53.8984 29.1719V7.53906C53.8984 3.17969 56.7266 1 62.3828 1C67.9609 1 70.75 3.16406 70.75 7.49219V29.125C70.75 31.0781 69.9688 32.5859 68.4062 33.6484C66.8594 34.6953 64.8359 35.2188 62.3359 35.2188C56.7109 35.2188 53.8984 33.2031 53.8984 29.1719ZM63.5312 29.5234V6.625C63.5312 5.95312 63.1328 5.61719 62.3359 5.61719C61.5078 5.61719 61.0938 5.95312 61.0938 6.625V29.5234C61.0938 30.1953 61.5078 30.5312 62.3359 30.5312C63.1328 30.5312 63.5312 30.1953 63.5312 29.5234ZM17.2656 79.9141H13.7266L12.7656 78.0625C11.1406 79.5 9.42188 80.2188 7.60938 80.2188C5.84375 80.2188 4.29688 79.7656 2.96875 78.8594C1.65625 77.9375 1 76.4766 1 74.4766V52.5391C1 48.1797 3.78125 46 9.34375 46C14.625 46 17.2656 47.9844 17.2656 51.9531V58.1875H10.5859V51.3906C10.5859 50.8438 10.2188 50.5703 9.48438 50.5703C8.75 50.5703 8.38281 50.8438 8.38281 51.3906V74.7109C8.38281 75.2578 8.75 75.5312 9.48438 75.5312C10.2188 75.5312 10.5859 75.2578 10.5859 74.7109V68.4297H9.0625V63.2734H17.2656V79.9141ZM18.7656 74.1719V52.5391C18.7656 48.1797 21.5938 46 27.25 46C32.8281 46 35.6172 48.1641 35.6172 52.4922V74.125C35.6172 76.0781 34.8359 77.5859 33.2734 78.6484C31.7266 79.6953 29.7031 80.2188 27.2031 80.2188C21.5781 80.2188 18.7656 78.2031 18.7656 74.1719ZM28.3984 74.5234V51.625C28.3984 50.9531 28 50.6172 27.2031 50.6172C26.375 50.6172 25.9609 50.9531 25.9609 51.625V74.5234C25.9609 75.1953 26.375 75.5312 27.2031 75.5312C28 75.5312 28.3984 75.1953 28.3984 74.5234ZM57.1094 79.9141H49.7969L48.5547 70.8906H45.25L44.0078 79.9141H36.6953L42.2266 46.3047H51.5781L57.1094 79.9141ZM47.9453 66.2266L46.8906 56.1953L45.8828 66.2266H47.9453ZM72.2266 79.9141H58.375V46.3047H65.7578V75.6016H72.2266V79.9141Z"/>
</mask>
<path d="M2.14844 21.4609H8.875V29.1719C8.875 29.9375 9.33594 30.3203 10.2578 30.3203C11.1484 30.3203 11.5938 29.9375 11.5938 29.1719V25.1875C11.5938 23.9688 10.7812 22.5391 9.15625 20.8984C6.01562 17.8516 4.0625 15.8047 3.29688 14.7578C2.53125 13.7109 2.14844 12.5625 2.14844 11.3125V7.53906C2.14844 3.17969 4.99219 1 10.6797 1C15.7734 1 18.3203 2.98438 18.3203 6.95312V12.7656H11.5938V6.57812C11.5938 5.90625 11.2266 5.57031 10.4922 5.57031C9.63281 5.57031 9.20312 6.21875 9.20312 7.51562L9.34375 9.69531C9.34375 10.9453 10.1719 12.3984 11.8281 14.0547C14.9062 17.0078 16.8594 19.0703 17.6875 20.2422C18.5312 21.4141 18.9531 22.7422 18.9531 24.2266V28.5156C18.9531 32.9844 16.1016 35.2188 10.3984 35.2188C4.89844 35.2188 2.14844 33.1875 2.14844 29.125V21.4609ZM20.4766 29.1719V7.53906C20.4766 3.17969 23.3047 1 28.9609 1C34.5391 1 37.3281 3.16406 37.3281 7.49219V29.125C37.3281 31.0781 36.5469 32.5859 34.9844 33.6484C33.4375 34.6953 31.4141 35.2188 28.9141 35.2188C23.2891 35.2188 20.4766 33.2031 20.4766 29.1719ZM30.1094 29.5234V6.625C30.1094 5.95312 29.7109 5.61719 28.9141 5.61719C28.0859 5.61719 27.6719 5.95312 27.6719 6.625V29.5234C27.6719 30.1953 28.0859 30.5312 28.9141 30.5312C29.7109 30.5312 30.1094 30.1953 30.1094 29.5234ZM52.7969 34.9141H38.9453V1.30469H46.3281V30.6016H52.7969V34.9141ZM53.8984 29.1719V7.53906C53.8984 3.17969 56.7266 1 62.3828 1C67.9609 1 70.75 3.16406 70.75 7.49219V29.125C70.75 31.0781 69.9688 32.5859 68.4062 33.6484C66.8594 34.6953 64.8359 35.2188 62.3359 35.2188C56.7109 35.2188 53.8984 33.2031 53.8984 29.1719ZM63.5312 29.5234V6.625C63.5312 5.95312 63.1328 5.61719 62.3359 5.61719C61.5078 5.61719 61.0938 5.95312 61.0938 6.625V29.5234C61.0938 30.1953 61.5078 30.5312 62.3359 30.5312C63.1328 30.5312 63.5312 30.1953 63.5312 29.5234ZM17.2656 79.9141H13.7266L12.7656 78.0625C11.1406 79.5 9.42188 80.2188 7.60938 80.2188C5.84375 80.2188 4.29688 79.7656 2.96875 78.8594C1.65625 77.9375 1 76.4766 1 74.4766V52.5391C1 48.1797 3.78125 46 9.34375 46C14.625 46 17.2656 47.9844 17.2656 51.9531V58.1875H10.5859V51.3906C10.5859 50.8438 10.2188 50.5703 9.48438 50.5703C8.75 50.5703 8.38281 50.8438 8.38281 51.3906V74.7109C8.38281 75.2578 8.75 75.5312 9.48438 75.5312C10.2188 75.5312 10.5859 75.2578 10.5859 74.7109V68.4297H9.0625V63.2734H17.2656V79.9141ZM18.7656 74.1719V52.5391C18.7656 48.1797 21.5938 46 27.25 46C32.8281 46 35.6172 48.1641 35.6172 52.4922V74.125C35.6172 76.0781 34.8359 77.5859 33.2734 78.6484C31.7266 79.6953 29.7031 80.2188 27.2031 80.2188C21.5781 80.2188 18.7656 78.2031 18.7656 74.1719ZM28.3984 74.5234V51.625C28.3984 50.9531 28 50.6172 27.2031 50.6172C26.375 50.6172 25.9609 50.9531 25.9609 51.625V74.5234C25.9609 75.1953 26.375 75.5312 27.2031 75.5312C28 75.5312 28.3984 75.1953 28.3984 74.5234ZM57.1094 79.9141H49.7969L48.5547 70.8906H45.25L44.0078 79.9141H36.6953L42.2266 46.3047H51.5781L57.1094 79.9141ZM47.9453 66.2266L46.8906 56.1953L45.8828 66.2266H47.9453ZM72.2266 79.9141H58.375V46.3047H65.7578V75.6016H72.2266V79.9141Z" fill="white"/>
<path d="M2.14844 21.4609V20.4609H1.14844V21.4609H2.14844ZM8.875 21.4609H9.875V20.4609H8.875V21.4609ZM9.15625 20.8984L9.86673 20.1947L9.85972 20.1876L9.85256 20.1807L9.15625 20.8984ZM18.3203 12.7656V13.7656H19.3203V12.7656H18.3203ZM11.5938 12.7656H10.5938V13.7656H11.5938V12.7656ZM9.20312 7.51562H8.20312V7.54785L8.2052 7.58001L9.20312 7.51562ZM9.34375 9.69531H10.3438V9.66309L10.3417 9.63093L9.34375 9.69531ZM11.8281 14.0547L11.121 14.7618L11.1283 14.7691L11.1358 14.7763L11.8281 14.0547ZM17.6875 20.2422L16.8708 20.8193L16.876 20.8265L17.6875 20.2422ZM2.14844 21.4609V22.4609H8.875V21.4609V20.4609H2.14844V21.4609ZM8.875 21.4609H7.875V29.1719H8.875H9.875V21.4609H8.875ZM8.875 29.1719H7.875C7.875 29.7627 8.06176 30.3706 8.5818 30.8025C9.06627 31.2048 9.68327 31.3203 10.2578 31.3203V30.3203V29.3203C9.91048 29.3203 9.83607 29.2444 9.8596 29.2639C9.86574 29.269 9.87325 29.2767 9.88005 29.2861C9.88322 29.2905 9.8856 29.2944 9.88725 29.2974C9.88889 29.3004 9.88954 29.302 9.88947 29.3018C9.8892 29.3012 9.875 29.265 9.875 29.1719H8.875ZM10.2578 30.3203V31.3203C10.8234 31.3203 11.4342 31.202 11.9117 30.7915C12.4181 30.3562 12.5938 29.7516 12.5938 29.1719H11.5938H10.5938C10.5938 29.2686 10.5794 29.3088 10.5779 29.3128C10.5774 29.3142 10.5794 29.3086 10.5859 29.2994C10.5924 29.2899 10.6003 29.2814 10.6079 29.2749C10.6401 29.2472 10.5829 29.3203 10.2578 29.3203V30.3203ZM11.5938 29.1719H12.5938V25.1875H11.5938H10.5938V29.1719H11.5938ZM11.5938 25.1875H12.5938C12.5938 23.5513 11.5295 21.8735 9.86673 20.1947L9.15625 20.8984L8.44577 21.6022C10.033 23.2046 10.5938 24.3862 10.5938 25.1875H11.5938ZM9.15625 20.8984L9.85256 20.1807C6.69632 17.1187 4.80993 15.1327 4.10405 14.1675L3.29688 14.7578L2.4897 15.3481C3.31507 16.4767 5.33493 18.5845 8.45994 21.6162L9.15625 20.8984ZM3.29688 14.7578L4.10405 14.1675C3.45868 13.2851 3.14844 12.3419 3.14844 11.3125H2.14844H1.14844C1.14844 12.7831 1.60382 14.1368 2.4897 15.3481L3.29688 14.7578ZM2.14844 11.3125H3.14844V7.53906H2.14844H1.14844V11.3125H2.14844ZM2.14844 7.53906H3.14844C3.14844 5.59531 3.76869 4.28759 4.88959 3.42844C6.06084 2.5307 7.93556 2 10.6797 2V1V0C7.73631 0 5.34541 0.559143 3.67291 1.84109C1.95006 3.16162 1.14844 5.12344 1.14844 7.53906H2.14844ZM10.6797 1V2C13.1242 2 14.7736 2.48086 15.7955 3.27711C16.7701 4.03641 17.3203 5.19876 17.3203 6.95312H18.3203H19.3203C19.3203 4.73874 18.5971 2.92453 17.0248 1.69945C15.4999 0.51133 13.3289 0 10.6797 0V1ZM18.3203 6.95312H17.3203V12.7656H18.3203H19.3203V6.95312H18.3203ZM18.3203 12.7656V11.7656H11.5938V12.7656V13.7656H18.3203V12.7656ZM11.5938 12.7656H12.5938V6.57812H11.5938H10.5938V12.7656H11.5938ZM11.5938 6.57812H12.5938C12.5938 6.06402 12.4492 5.50146 11.9934 5.08446C11.5544 4.68287 10.9926 4.57031 10.4922 4.57031V5.57031V6.57031C10.6027 6.57031 10.6611 6.58332 10.6824 6.58981C10.7 6.59516 10.6774 6.59127 10.6433 6.56007C10.6273 6.54537 10.6134 6.52886 10.6026 6.51239C10.592 6.49619 10.587 6.4841 10.5853 6.47953C10.5826 6.47203 10.5938 6.49861 10.5938 6.57812H11.5938ZM10.4922 5.57031V4.57031C9.7686 4.57031 9.11366 4.86764 8.6918 5.50426C8.31784 6.06859 8.20312 6.78842 8.20312 7.51562H9.20312H10.2031C10.2031 6.94595 10.3033 6.69312 10.359 6.60902C10.37 6.59238 10.3769 6.58605 10.3779 6.58515C10.3785 6.58454 10.3786 6.58458 10.3781 6.58492C10.3776 6.58527 10.3773 6.58539 10.3776 6.58524C10.3777 6.5852 10.3841 6.58184 10.4008 6.57825C10.418 6.57454 10.4475 6.57031 10.4922 6.57031V5.57031ZM9.20312 7.51562L8.2052 7.58001L8.34583 9.7597L9.34375 9.69531L10.3417 9.63093L10.201 7.45124L9.20312 7.51562ZM9.34375 9.69531H8.34375C8.34375 11.3636 9.42406 13.0648 11.121 14.7618L11.8281 14.0547L12.5352 13.3476C10.9197 11.732 10.3438 10.5271 10.3438 9.69531H9.34375ZM11.8281 14.0547L11.1358 14.7763C14.2253 17.7403 16.1071 19.7385 16.8708 20.8193L17.6875 20.2422L18.5042 19.6651C17.6117 18.4021 15.5872 16.2753 12.5204 13.3331L11.8281 14.0547ZM17.6875 20.2422L16.876 20.8265C17.5936 21.8232 17.9531 22.9456 17.9531 24.2266H18.9531H19.9531C19.9531 22.5387 19.4689 21.005 18.499 19.6579L17.6875 20.2422ZM18.9531 24.2266H17.9531V28.5156H18.9531H19.9531V24.2266H18.9531ZM18.9531 28.5156H17.9531C17.9531 30.522 17.3253 31.8723 16.1977 32.7558C15.0236 33.6758 13.1467 34.2188 10.3984 34.2188V35.2188V36.2188C13.3533 36.2188 15.7537 35.6446 17.4312 34.3301C19.1552 32.9793 19.9531 30.978 19.9531 28.5156H18.9531ZM10.3984 35.2188V34.2188C7.74224 34.2188 5.93162 33.7231 4.80507 32.8909C3.73518 32.1007 3.14844 30.9065 3.14844 29.125H2.14844H1.14844C1.14844 31.406 1.93669 33.2587 3.6168 34.4997C5.24026 35.6988 7.55464 36.2188 10.3984 36.2188V35.2188ZM2.14844 29.125H3.14844V21.4609H2.14844H1.14844V29.125H2.14844ZM34.9844 33.6484L35.5449 34.4766L35.5467 34.4754L34.9844 33.6484ZM20.4766 29.1719H21.4766V7.53906H20.4766H19.4766V29.1719H20.4766ZM20.4766 7.53906H21.4766C21.4766 5.59331 22.0943 4.28522 23.2081 3.42682C24.3712 2.53036 26.2333 2 28.9609 2V1V0C26.0323 0 23.6522 0.559479 21.9872 1.84271C20.2729 3.164 19.4766 5.12544 19.4766 7.53906H20.4766ZM28.9609 1V2C31.6484 2 33.48 2.52604 34.6233 3.41311C35.7184 4.2628 36.3281 5.55963 36.3281 7.49219H37.3281H38.3281C38.3281 5.09662 37.5433 3.14735 35.8493 1.83298C34.2036 0.555988 31.8516 0 28.9609 0V1ZM37.3281 7.49219H36.3281V29.125H37.3281H38.3281V7.49219H37.3281ZM37.3281 29.125H36.3281C36.3281 30.7603 35.6999 31.9526 34.4221 32.8215L34.9844 33.6484L35.5467 34.4754C37.3938 33.2193 38.3281 31.3959 38.3281 29.125H37.3281ZM34.9844 33.6484L34.4239 32.8203C33.09 33.723 31.2806 34.2188 28.9141 34.2188V35.2188V36.2188C31.5476 36.2188 33.785 35.6676 35.5449 34.4766L34.9844 33.6484ZM28.9141 35.2188V34.2188C26.1909 34.2188 24.3283 33.7254 23.1685 32.8942C22.0701 32.1071 21.4766 30.926 21.4766 29.1719H20.4766H19.4766C19.4766 31.449 20.2893 33.2914 22.0034 34.5198C23.6561 35.7043 26.0122 36.2188 28.9141 36.2188V35.2188ZM30.1094 29.5234H31.1094V6.625H30.1094H29.1094V29.5234H30.1094ZM30.1094 6.625H31.1094C31.1094 6.08594 30.9415 5.51465 30.4551 5.10462C30.0015 4.72214 29.429 4.61719 28.9141 4.61719V5.61719V6.61719C29.0463 6.61719 29.1259 6.63148 29.1665 6.64288C29.2044 6.65354 29.1943 6.65756 29.166 6.63366C29.134 6.6067 29.1132 6.57328 29.1047 6.55174C29.0986 6.53629 29.1094 6.55372 29.1094 6.625H30.1094ZM28.9141 5.61719V4.61719C28.3907 4.61719 27.8126 4.71917 27.3524 5.09258C26.8521 5.49844 26.6719 6.07318 26.6719 6.625H27.6719H28.6719C28.6719 6.5579 28.6824 6.54494 28.6745 6.56411C28.6641 6.5894 28.6418 6.6219 28.6125 6.6457C28.5875 6.66595 28.5839 6.65842 28.6317 6.6455C28.6815 6.63201 28.7714 6.61719 28.9141 6.61719V5.61719ZM27.6719 6.625H26.6719V29.5234H27.6719H28.6719V6.625H27.6719ZM27.6719 29.5234H26.6719C26.6719 30.0753 26.8521 30.65 27.3524 31.0559C27.8126 31.4293 28.3907 31.5312 28.9141 31.5312V30.5312V29.5312C28.7714 29.5312 28.6815 29.5164 28.6317 29.5029C28.5839 29.49 28.5875 29.4825 28.6125 29.5027C28.6418 29.5265 28.6641 29.559 28.6745 29.5843C28.6824 29.6035 28.6719 29.5905 28.6719 29.5234H27.6719ZM28.9141 30.5312V31.5312C29.429 31.5312 30.0015 31.4263 30.4551 31.0438C30.9415 30.6338 31.1094 30.0625 31.1094 29.5234H30.1094H29.1094C29.1094 29.5947 29.0986 29.6121 29.1047 29.5967C29.1132 29.5752 29.134 29.5417 29.166 29.5148C29.1943 29.4909 29.2044 29.4949 29.1665 29.5056C29.1259 29.517 29.0463 29.5312 28.9141 29.5312V30.5312ZM52.7969 34.9141V35.9141H53.7969V34.9141H52.7969ZM38.9453 34.9141H37.9453V35.9141H38.9453V34.9141ZM38.9453 1.30469V0.304688H37.9453V1.30469H38.9453ZM46.3281 1.30469H47.3281V0.304688H46.3281V1.30469ZM46.3281 30.6016H45.3281V31.6016H46.3281V30.6016ZM52.7969 30.6016H53.7969V29.6016H52.7969V30.6016ZM52.7969 34.9141V33.9141H38.9453V34.9141V35.9141H52.7969V34.9141ZM38.9453 34.9141H39.9453V1.30469H38.9453H37.9453V34.9141H38.9453ZM38.9453 1.30469V2.30469H46.3281V1.30469V0.304688H38.9453V1.30469ZM46.3281 1.30469H45.3281V30.6016H46.3281H47.3281V1.30469H46.3281ZM46.3281 30.6016V31.6016H52.7969V30.6016V29.6016H46.3281V30.6016ZM52.7969 30.6016H51.7969V34.9141H52.7969H53.7969V30.6016H52.7969ZM68.4062 33.6484L68.9667 34.4766L68.9686 34.4754L68.4062 33.6484ZM53.8984 29.1719H54.8984V7.53906H53.8984H52.8984V29.1719H53.8984ZM53.8984 7.53906H54.8984C54.8984 5.59331 55.5162 4.28522 56.63 3.42682C57.7931 2.53036 59.6552 2 62.3828 2V1V0C59.4542 0 57.0741 0.559479 55.4091 1.84271C53.6947 3.164 52.8984 5.12544 52.8984 7.53906H53.8984ZM62.3828 1V2C65.0702 2 66.9019 2.52604 68.0452 3.41311C69.1403 4.2628 69.75 5.55963 69.75 7.49219H70.75H71.75C71.75 5.09662 70.9652 3.14735 69.2712 1.83298C67.6254 0.555988 65.2735 0 62.3828 0V1ZM70.75 7.49219H69.75V29.125H70.75H71.75V7.49219H70.75ZM70.75 29.125H69.75C69.75 30.7603 69.1218 31.9526 67.8439 32.8215L68.4062 33.6484L68.9686 34.4754C70.8157 33.2193 71.75 31.3959 71.75 29.125H70.75ZM68.4062 33.6484L67.8458 32.8203C66.5119 33.723 64.7024 34.2188 62.3359 34.2188V35.2188V36.2188C64.9694 36.2188 67.2069 35.6676 68.9667 34.4766L68.4062 33.6484ZM62.3359 35.2188V34.2188C59.6128 34.2188 57.7502 33.7254 56.5903 32.8942C55.492 32.1071 54.8984 30.926 54.8984 29.1719H53.8984H52.8984C52.8984 31.449 53.7111 33.2914 55.4253 34.5198C57.078 35.7043 59.4341 36.2188 62.3359 36.2188V35.2188ZM63.5312 29.5234H64.5312V6.625H63.5312H62.5312V29.5234H63.5312ZM63.5312 6.625H64.5312C64.5312 6.08594 64.3633 5.51465 63.877 5.10462C63.4234 4.72214 62.8508 4.61719 62.3359 4.61719V5.61719V6.61719C62.4682 6.61719 62.5478 6.63148 62.5883 6.64288C62.6262 6.65354 62.6162 6.65756 62.5878 6.63366C62.5558 6.6067 62.5351 6.57328 62.5266 6.55174C62.5205 6.53629 62.5312 6.55372 62.5312 6.625H63.5312ZM62.3359 5.61719V4.61719C61.8125 4.61719 61.2345 4.71917 60.7743 5.09258C60.274 5.49844 60.0938 6.07318 60.0938 6.625H61.0938H62.0938C62.0938 6.5579 62.1042 6.54494 62.0964 6.56411C62.086 6.5894 62.0637 6.6219 62.0343 6.6457C62.0094 6.66595 62.0058 6.65842 62.0535 6.6455C62.1034 6.63201 62.1932 6.61719 62.3359 6.61719V5.61719ZM61.0938 6.625H60.0938V29.5234H61.0938H62.0938V6.625H61.0938ZM61.0938 29.5234H60.0938C60.0938 30.0753 60.274 30.65 60.7743 31.0559C61.2345 31.4293 61.8125 31.5312 62.3359 31.5312V30.5312V29.5312C62.1932 29.5312 62.1034 29.5164 62.0535 29.5029C62.0058 29.49 62.0094 29.4825 62.0343 29.5027C62.0637 29.5265 62.086 29.559 62.0964 29.5843C62.1042 29.6035 62.0938 29.5905 62.0938 29.5234H61.0938ZM62.3359 30.5312V31.5312C62.8508 31.5312 63.4234 31.4263 63.877 31.0438C64.3633 30.6338 64.5312 30.0625 64.5312 29.5234H63.5312H62.5312C62.5312 29.5947 62.5205 29.6121 62.5266 29.5967C62.5351 29.5752 62.5558 29.5417 62.5878 29.5148C62.6162 29.4909 62.6262 29.4949 62.5883 29.5056C62.5478 29.517 62.4682 29.5312 62.3359 29.5312V30.5312ZM17.2656 79.9141V80.9141H18.2656V79.9141H17.2656ZM13.7266 79.9141L12.839 80.3747L13.1189 80.9141H13.7266V79.9141ZM12.7656 78.0625L13.6532 77.6019L13.0629 76.4644L12.1031 77.3135L12.7656 78.0625ZM2.96875 78.8594L2.39393 79.6778L2.40511 79.6854L2.96875 78.8594ZM17.2656 58.1875V59.1875H18.2656V58.1875H17.2656ZM10.5859 58.1875H9.58594V59.1875H10.5859V58.1875ZM10.5859 68.4297H11.5859V67.4297H10.5859V68.4297ZM9.0625 68.4297H8.0625V69.4297H9.0625V68.4297ZM9.0625 63.2734V62.2734H8.0625V63.2734H9.0625ZM17.2656 63.2734H18.2656V62.2734H17.2656V63.2734ZM17.2656 79.9141V78.9141H13.7266V79.9141V80.9141H17.2656V79.9141ZM13.7266 79.9141L14.6141 79.4534L13.6532 77.6019L12.7656 78.0625L11.878 78.5231L12.839 80.3747L13.7266 79.9141ZM12.7656 78.0625L12.1031 77.3135C10.623 78.6228 9.13155 79.2188 7.60938 79.2188V80.2188V81.2188C9.7122 81.2188 11.6583 80.3772 13.4282 78.8115L12.7656 78.0625ZM7.60938 80.2188V79.2188C6.02424 79.2188 4.67815 78.8152 3.53239 78.0334L2.96875 78.8594L2.40511 79.6854C3.9156 80.7161 5.66326 81.2188 7.60938 81.2188V80.2188ZM2.96875 78.8594L3.54352 78.0411C2.56385 77.353 2 76.2412 2 74.4766H1H0C0 76.7119 0.748652 78.522 2.39398 79.6777L2.96875 78.8594ZM1 74.4766H2V52.5391H1H0V74.4766H1ZM1 52.5391H2C2 50.5873 2.61029 49.278 3.70278 48.4219C4.84165 47.5293 6.66581 47 9.34375 47V46V45C6.45919 45 4.11147 45.5605 2.46909 46.8477C0.780335 48.1712 0 50.1314 0 52.5391H1ZM9.34375 46V47C11.8879 47 13.6136 47.483 14.6844 48.2877C15.7014 49.052 16.2656 50.212 16.2656 51.9531H17.2656H18.2656C18.2656 49.7255 17.5095 47.9089 15.8859 46.6889C14.3161 45.5092 12.0808 45 9.34375 45V46ZM17.2656 51.9531H16.2656V58.1875H17.2656H18.2656V51.9531H17.2656ZM17.2656 58.1875V57.1875H10.5859V58.1875V59.1875H17.2656V58.1875ZM10.5859 58.1875H11.5859V51.3906H10.5859H9.58594V58.1875H10.5859ZM10.5859 51.3906H11.5859C11.5859 50.8705 11.3957 50.3366 10.9078 49.9733C10.4753 49.6512 9.94661 49.5703 9.48438 49.5703V50.5703V51.5703C9.60916 51.5703 9.68563 51.5823 9.72539 51.5921C9.7642 51.6018 9.75011 51.6049 9.71328 51.5774C9.6945 51.5634 9.67302 51.5438 9.65234 51.5182C9.63159 51.4924 9.61566 51.4656 9.60436 51.4403C9.58165 51.3896 9.58594 51.3648 9.58594 51.3906H10.5859ZM9.48438 50.5703V49.5703C9.02214 49.5703 8.4935 49.6512 8.06094 49.9733C7.57308 50.3366 7.38281 50.8705 7.38281 51.3906H8.38281H9.38281C9.38281 51.3648 9.3871 51.3896 9.36439 51.4403C9.35309 51.4656 9.33716 51.4924 9.31641 51.5182C9.29573 51.5438 9.27425 51.5634 9.25547 51.5774C9.21864 51.6049 9.20455 51.6018 9.24336 51.5921C9.28312 51.5823 9.35959 51.5703 9.48438 51.5703V50.5703ZM8.38281 51.3906H7.38281V74.7109H8.38281H9.38281V51.3906H8.38281ZM8.38281 74.7109H7.38281C7.38281 75.231 7.57308 75.7649 8.06094 76.1282C8.4935 76.4503 9.02214 76.5312 9.48438 76.5312V75.5312V74.5312C9.35959 74.5312 9.28312 74.5193 9.24336 74.5094C9.20455 74.4998 9.21864 74.4967 9.25547 74.5241C9.27425 74.5381 9.29573 74.5577 9.31641 74.5834C9.33716 74.6092 9.35309 74.636 9.36439 74.6613C9.3871 74.712 9.38281 74.7367 9.38281 74.7109H8.38281ZM9.48438 75.5312V76.5312C9.94661 76.5312 10.4753 76.4503 10.9078 76.1282C11.3957 75.7649 11.5859 75.231 11.5859 74.7109H10.5859H9.58594C9.58594 74.7367 9.58165 74.712 9.60436 74.6613C9.61566 74.636 9.63159 74.6092 9.65234 74.5834C9.67302 74.5577 9.6945 74.5381 9.71328 74.5241C9.75011 74.4967 9.7642 74.4998 9.72539 74.5094C9.68563 74.5193 9.60916 74.5312 9.48438 74.5312V75.5312ZM10.5859 74.7109H11.5859V68.4297H10.5859H9.58594V74.7109H10.5859ZM10.5859 68.4297V67.4297H9.0625V68.4297V69.4297H10.5859V68.4297ZM9.0625 68.4297H10.0625V63.2734H9.0625H8.0625V68.4297H9.0625ZM9.0625 63.2734V64.2734H17.2656V63.2734V62.2734H9.0625V63.2734ZM17.2656 63.2734H16.2656V79.9141H17.2656H18.2656V63.2734H17.2656ZM33.2734 78.6484L33.8339 79.4766L33.8357 79.4754L33.2734 78.6484ZM18.7656 74.1719H19.7656V52.5391H18.7656H17.7656V74.1719H18.7656ZM18.7656 52.5391H19.7656C19.7656 50.5933 20.3834 49.2852 21.4972 48.4268C22.6603 47.5304 24.5224 47 27.25 47V46V45C24.3214 45 21.9413 45.5595 20.2763 46.8427C18.5619 48.164 17.7656 50.1254 17.7656 52.5391H18.7656ZM27.25 46V47C29.9374 47 31.7691 47.526 32.9124 48.4131C34.0075 49.2628 34.6172 50.5596 34.6172 52.4922H35.6172H36.6172C36.6172 50.0966 35.8324 48.1474 34.1384 46.833C32.4926 45.556 30.1407 45 27.25 45V46ZM35.6172 52.4922H34.6172V74.125H35.6172H36.6172V52.4922H35.6172ZM35.6172 74.125H34.6172C34.6172 75.7603 33.989 76.9526 32.7111 77.8215L33.2734 78.6484L33.8357 79.4754C35.6829 78.2193 36.6172 76.3959 36.6172 74.125H35.6172ZM33.2734 78.6484L32.713 77.8203C31.379 78.723 29.5696 79.2188 27.2031 79.2188V80.2188V81.2188C29.8366 81.2188 32.0741 80.6676 33.8339 79.4766L33.2734 78.6484ZM27.2031 80.2188V79.2188C24.4799 79.2188 22.6174 78.7254 21.4575 77.8942C20.3592 77.1071 19.7656 75.926 19.7656 74.1719H18.7656H17.7656C17.7656 76.449 18.5783 78.2914 20.2925 79.5199C21.9451 80.7043 24.3013 81.2188 27.2031 81.2188V80.2188ZM28.3984 74.5234H29.3984V51.625H28.3984H27.3984V74.5234H28.3984ZM28.3984 51.625H29.3984C29.3984 51.0859 29.2305 50.5146 28.7442 50.1046C28.2906 49.7221 27.718 49.6172 27.2031 49.6172V50.6172V51.6172C27.3353 51.6172 27.415 51.6315 27.4555 51.6429C27.4934 51.6535 27.4834 51.6576 27.455 51.6337C27.423 51.6067 27.4023 51.5733 27.3938 51.5517C27.3877 51.5363 27.3984 51.5537 27.3984 51.625H28.3984ZM27.2031 50.6172V49.6172C26.6797 49.6172 26.1017 49.7192 25.6414 50.0926C25.1412 50.4984 24.9609 51.0732 24.9609 51.625H25.9609H26.9609C26.9609 51.5579 26.9714 51.5449 26.9635 51.5641C26.9532 51.5894 26.9309 51.6219 26.9015 51.6457C26.8766 51.666 26.873 51.6584 26.9207 51.6455C26.9706 51.632 27.0604 51.6172 27.2031 51.6172V50.6172ZM25.9609 51.625H24.9609V74.5234H25.9609H26.9609V51.625H25.9609ZM25.9609 74.5234H24.9609C24.9609 75.0753 25.1412 75.65 25.6414 76.0559C26.1017 76.4293 26.6797 76.5312 27.2031 76.5312V75.5312V74.5312C27.0604 74.5312 26.9706 74.5164 26.9207 74.5029C26.873 74.49 26.8766 74.4825 26.9015 74.5027C26.9309 74.5265 26.9532 74.559 26.9635 74.5843C26.9714 74.6035 26.9609 74.5905 26.9609 74.5234H25.9609ZM27.2031 75.5312V76.5312C27.718 76.5312 28.2906 76.4263 28.7442 76.0438C29.2305 75.6338 29.3984 75.0625 29.3984 74.5234H28.3984H27.3984C27.3984 74.5947 27.3877 74.6121 27.3938 74.5967C27.4023 74.5751 27.423 74.5417 27.455 74.5148C27.4834 74.4909 27.4934 74.4949 27.4555 74.5056C27.415 74.517 27.3353 74.5312 27.2031 74.5312V75.5312ZM57.1094 79.9141V80.9141H58.2874L58.0961 79.7517L57.1094 79.9141ZM49.7969 79.9141L48.8062 80.0504L48.9251 80.9141H49.7969V79.9141ZM48.5547 70.8906L49.5453 70.7542L49.4265 69.8906H48.5547V70.8906ZM45.25 70.8906V69.8906H44.3782L44.2593 70.7542L45.25 70.8906ZM44.0078 79.9141V80.9141H44.8796L44.9985 80.0504L44.0078 79.9141ZM36.6953 79.9141L35.7086 79.7517L35.5173 80.9141H36.6953V79.9141ZM42.2266 46.3047V45.3047H41.3777L41.2398 46.1423L42.2266 46.3047ZM51.5781 46.3047L52.5648 46.1423L52.427 45.3047H51.5781V46.3047ZM47.9453 66.2266V67.2266H49.056L48.9398 66.122L47.9453 66.2266ZM46.8906 56.1953L47.8851 56.0907L45.8956 56.0954L46.8906 56.1953ZM45.8828 66.2266L44.8878 66.1266L44.7773 67.2266H45.8828V66.2266ZM57.1094 79.9141V78.9141H49.7969V79.9141V80.9141H57.1094V79.9141ZM49.7969 79.9141L50.7875 79.7777L49.5453 70.7542L48.5547 70.8906L47.564 71.027L48.8062 80.0504L49.7969 79.9141ZM48.5547 70.8906V69.8906H45.25V70.8906V71.8906H48.5547V70.8906ZM45.25 70.8906L44.2593 70.7542L43.0172 79.7777L44.0078 79.9141L44.9985 80.0504L46.2407 71.027L45.25 70.8906ZM44.0078 79.9141V78.9141H36.6953V79.9141V80.9141H44.0078V79.9141ZM36.6953 79.9141L37.682 80.0765L43.2133 46.4671L42.2266 46.3047L41.2398 46.1423L35.7086 79.7517L36.6953 79.9141ZM42.2266 46.3047V47.3047H51.5781V46.3047V45.3047H42.2266V46.3047ZM51.5781 46.3047L50.5914 46.4671L56.1227 80.0765L57.1094 79.9141L58.0961 79.7517L52.5648 46.1423L51.5781 46.3047ZM47.9453 66.2266L48.9398 66.122L47.8851 56.0907L46.8906 56.1953L45.8961 56.2999L46.9508 66.3311L47.9453 66.2266ZM46.8906 56.1953L45.8956 56.0954L44.8878 66.1266L45.8828 66.2266L46.8778 66.3265L47.8856 56.2953L46.8906 56.1953ZM45.8828 66.2266V67.2266H47.9453V66.2266V65.2266H45.8828V66.2266ZM72.2266 79.9141V80.9141H73.2266V79.9141H72.2266ZM58.375 79.9141H57.375V80.9141H58.375V79.9141ZM58.375 46.3047V45.3047H57.375V46.3047H58.375ZM65.7578 46.3047H66.7578V45.3047H65.7578V46.3047ZM65.7578 75.6016H64.7578V76.6016H65.7578V75.6016ZM72.2266 75.6016H73.2266V74.6016H72.2266V75.6016ZM72.2266 79.9141V78.9141H58.375V79.9141V80.9141H72.2266V79.9141ZM58.375 79.9141H59.375V46.3047H58.375H57.375V79.9141H58.375ZM58.375 46.3047V47.3047H65.7578V46.3047V45.3047H58.375V46.3047ZM65.7578 46.3047H64.7578V75.6016H65.7578H66.7578V46.3047H65.7578ZM65.7578 75.6016V76.6016H72.2266V75.6016V74.6016H65.7578V75.6016ZM72.2266 75.6016H71.2266V79.9141H72.2266H73.2266V75.6016H72.2266Z" fill="#56493D" mask="url(#path-1-outside-1_663_77)"/>
</g>
<defs>
<filter id="filter0_d_663_77" x="0" y="0" width="77.2266" height="86.2188" filterUnits="userSpaceOnUse" color-interpolation-filters="sRGB">
<feFlood flood-opacity="0" result="BackgroundImageFix"/>
<feColorMatrix in="SourceAlpha" type="matrix" values="0 0 0 0 0 0 0 0 0 0 0 0 0 0 0 0 0 0 127 0" result="hardAlpha"/>
<feOffset dx="4" dy="5"/>
<feComposite in2="hardAlpha" operator="out"/>
<feColorMatrix type="matrix" values="0 0 0 0 0 0 0 0 0 0 0 0 0 0 0 0 0 0 0.25 0"/>
<feBlend mode="normal" in2="BackgroundImageFix" result="effect1_dropShadow_663_77"/>
<feBlend mode="normal" in="SourceGraphic" in2="effect1_dropShadow_663_77" result="shape"/>
</filter>
</defs>
</svg>
